<svg width="15" height="15" viewBox="0 0 38 35" fill="none" xmlns="http://www.w3.org/2000/svg">
<path fill-rule="evenodd" clip-rule="evenodd" d="M0 0H1.41447H3.02072H37.3544V3.06554V34.2469H35.9399H33.9999H0V31.1993V0ZM3.02072 31.1993H33.9999V3.06554H3.02072V31.1993Z" fill="#0C74BC"/>
<path d="M16.227 9.86394L16.2252 9.86229C15.6885 9.38402 14.8279 9.39265 14.3028 9.88155L7.62872 16.0968C7.10373 16.5857 7.11319 17.3698 7.64987 17.848L7.65173 17.8498C8.18839 18.328 9.04905 18.3193 9.57405 17.8304L16.2482 11.6152C16.7732 11.1263 16.7637 10.3422 16.227 9.86394Z" fill="#0C74BC"/>
<path d="M16.2362 24.151L16.238 24.1493C16.7631 23.6604 16.7535 22.8764 16.2169 22.3981L9.39436 16.318C8.85769 15.8398 7.99704 15.8484 7.47204 16.3374L7.47022 16.3389C6.94523 16.8279 6.95468 17.6119 7.49136 18.0902L14.3139 24.1704C14.8506 24.6486 15.7113 24.6399 16.2362 24.151Z" fill="#0C74BC"/>
<path d="M28.7774 17.852L28.7792 17.8504C29.3159 17.372 29.3254 16.588 28.8003 16.0991L22.1263 9.88381C21.6012 9.3949 20.7405 9.38628 20.2039 9.86455L20.2021 9.8662C19.6654 10.3445 19.6559 11.1285 20.1809 11.6174L26.8551 17.8328C27.38 18.3216 28.2407 18.3302 28.7774 17.852Z" fill="#0C74BC"/>
<path d="M28.9623 16.3419L28.9604 16.3402C28.4354 15.8512 27.5747 15.8426 27.038 16.3208L20.2155 22.401C19.6789 22.8792 19.6694 23.6633 20.1944 24.1521L20.1963 24.1538C20.7212 24.6428 21.5818 24.6514 22.1185 24.1732L28.9411 18.093C29.4778 17.6148 29.4872 16.8307 28.9623 16.3419Z" fill="#0C74BC"/>
</svg>
